<?xml version="1.0" encoding="UTF-8"?>
<svg width="42px" height="42px" viewBox="0 0 42 42" version="1.1" xmlns="http://www.w3.org/2000/svg" xmlns:xlink="http://www.w3.org/1999/xlink">
    <!-- Generator: Sketch 63.1 (92452) - https://sketch.com -->
    <title>Collection_icon</title>
    <desc>Created with Sketch.</desc>
    <g id="Collection_icon" stroke="none" stroke-width="1" fill="none" fill-rule="evenodd">
        <path d="M3.54441431,19.0990788 C2.81852856,16.8119242 2.81852856,14.5247697 3.54441431,13.7623848 C4.27030005,13 6.44795728,12.2376152 8.62561452,14.5247697 C10.8032717,16.8119242 10.077386,19.8614636 8.62561452,21.3862333 C7.17384303,22.911003 4.27030005,21.3862333 3.54441431,19.0990788 Z" id="Path-4" stroke="#D8D8D8" stroke-width="2"></path>
        <path d="M11.6221878,10.7767542 C10.7926041,8.23547138 10.7926041,5.69418855 11.6221878,4.84709428 C12.4517715,4 14.9405226,3.15290572 17.4292737,5.69418855 C19.9180249,8.23547138 19.0884411,11.6238485 17.4292737,13.318037 C15.7701063,15.0122256 12.4517715,13.318037 11.6221878,10.7767542 Z" id="Path-4-Copy" stroke="#D8D8D8" stroke-width="2" transform="translate(15.000000, 9.000000) rotate(10.000000) translate(-15.000000, -9.000000) "></path>
        <path d="M23.6221878,10.7767542 C22.7926041,8.23547138 22.7926041,5.69418855 23.6221878,4.84709428 C24.4517715,4 26.9405226,3.15290572 29.4292737,5.69418855 C31.9180249,8.23547138 31.0884411,11.6238485 29.4292737,13.318037 C27.7701063,15.0122256 24.4517715,13.318037 23.6221878,10.7767542 Z" id="Path-4-Copy-2" stroke="#D8D8D8" stroke-width="2" transform="translate(27.000000, 9.000000) scale(1, -1) rotate(6.000000) translate(-27.000000, -9.000000) "></path>
        <path d="M32.5444143,20.0990788 C31.8185286,17.8119242 31.8185286,15.5247697 32.5444143,14.7623848 C33.2703001,14 35.4479573,13.2376152 37.6256145,15.5247697 C39.8032717,17.8119242 39.077386,20.8614636 37.6256145,22.3862333 C36.173843,23.911003 33.2703001,22.3862333 32.5444143,20.0990788 Z" id="Path-4-Copy-3" stroke="#D8D8D8" stroke-width="2" transform="translate(35.500000, 18.500000) rotate(49.000000) translate(-35.500000, -18.500000) "></path>
        <path d="M16,38 C12,40.0155712 4,39.0155712 10,26.0155712 C16,13.0155712 27,15.0155712 32,26.0155712 C37,37.0155712 29,40.0155712 25,38.0155712 C21,36.0155712 20,35.9844288 16,38 Z" id="Path-3" stroke="#D8D8D8" stroke-width="2"></path>
    </g>
</svg>