<svg xmlns="http://www.w3.org/2000/svg" viewBox="0 0 126.36 146.48"><defs><style>.cls-1,.cls-2{fill:#e5b078;}.cls-2{font-size:19.12px;font-family:Livvic-Bold, Livvic;font-weight:700;}.cls-3{opacity:0.4;}.cls-4{fill:#231f20;}.cls-5{fill:#fff;}.cls-6{fill:#fff2c8;}.cls-7{fill:#deecc1;}.cls-8{fill:#020202;}</style></defs><title>logo_text</title><g id="Layer_21" data-name="Layer 21"><circle class="cls-1" cx="62.39" cy="90.51" r="51.53"/><text class="cls-2" transform="matrix(0.69, -0.73, 0.73, 0.69, 17.12, 60.38)">M</text><text class="cls-2" transform="matrix(0.82, -0.58, 0.57, 0.82, 29.55, 48.09)">i</text><text class="cls-2" transform="matrix(0.92, -0.4, 0.39, 0.92, 32.9, 44.83)">m</text><text class="cls-2" transform="translate(49.6 38.33) rotate(-11.55)">i</text><text class="cls-2" transform="matrix(1, -0.11, 0.11, 0.99, 54.38, 37.35)"> </text><text class="cls-2" transform="matrix(1, 0.03, -0.03, 1, 58.76, 36.58)">S</text><text class="cls-2" transform="translate(69.32 36.93) rotate(10.96)">t</text><text class="cls-2" transform="translate(76.74 38.15) rotate(20.67)">a</text><text class="cls-2" transform="matrix(0.87, 0.49, -0.49, 0.87, 87.32, 42.34)">l</text><text class="cls-2" transform="matrix(0.79, 0.61, -0.61, 0.79, 92.12, 44.8)">k</text><text class="cls-2" transform="matrix(0.67, 0.74, -0.74, 0.67, 100.13, 50.9)">e</text><text class="cls-2" transform="matrix(0.54, 0.84, -0.84, 0.54, 106.79, 58.33)">r</text></g><g id="Layer_17" data-name="Layer 17"><g class="cls-3"><path class="cls-4" d="M63.28,99.73a30.78,30.78,0,0,1-4.22-1.08A30.78,30.78,0,0,0,63.28,99.73Z" transform="translate(-1.89 18.59)"/><path class="cls-4" d="M54.23,81c.35-1.54.76-3,1.19-4.48C55,77.93,54.58,79.44,54.23,81Z" transform="translate(-1.89 18.59)"/><path class="cls-4" d="M77,73.31c.3.75.6,1.52.88,2.3C77.63,74.83,77.33,74.06,77,73.31Z" transform="translate(-1.89 18.59)"/><path class="cls-4" d="M62.64,84.23a4.35,4.35,0,0,1-.82-2.54,4.94,4.94,0,0,1,9.86,0A4.32,4.32,0,0,1,71,84.08a11.7,11.7,0,0,1,4.56,9.12,18.24,18.24,0,0,0,1.95-.81h0a11.47,11.47,0,0,0,1.19-.65,11.68,11.68,0,0,0,2.06-1.59,31.49,31.49,0,0,0-.59-6.47,6,6,0,0,1-3.24-10.56,18.93,18.93,0,0,1-9.52,2.52,19.19,19.19,0,0,1-6.62-1.17,17.47,17.47,0,0,1-1.63,1.76s-1.8,4.72-4.9,4.79c-1.64,7.18-2,14.95,3.11,17,.58.23,1.15.44,1.73.63a13.78,13.78,0,0,1-.82-4.71A12,12,0,0,1,62.64,84.23Z" transform="translate(-1.89 18.59)"/><path class="cls-4" d="M74.37,99.18c-.43.15-.87.29-1.32.4C73.5,99.47,73.94,99.33,74.37,99.18Z" transform="translate(-1.89 18.59)"/><path class="cls-4" d="M75.25,96.82a12.82,12.82,0,0,1-.68,2.28,8.79,8.79,0,0,0,5.31-4.47c-.33.22-.67.43-1,.62A20.49,20.49,0,0,1,75.25,96.82Z" transform="translate(-1.89 18.59)"/><path class="cls-4" d="M54.22,81h0v0Z" transform="translate(-1.89 18.59)"/><path class="cls-4" d="M59.12,76.22a17.47,17.47,0,0,0,1.63-1.76,17.71,17.71,0,0,1-4-2.06l0,.08-.24.68c0,.1-.06.19-.1.29l-.24.73-.09.28c-.09.26-.18.53-.26.81a1.87,1.87,0,0,0-.07.22c-.1.3-.19.6-.28.91l0,.1c-.43,1.43-.84,2.94-1.19,4.48v0C57.32,80.94,59.12,76.22,59.12,76.22Z" transform="translate(-1.89 18.59)"/><path class="cls-4" d="M68.83,97.19h0a2.47,2.47,0,0,1-1.71-1.45l-.06-.19a.86.86,0,0,1,0-.53.54.54,0,0,1,.24-.26.51.51,0,0,1,.21-.09,1.06,1.06,0,0,1,.28-.06H68c.29,0,.82,0,1.53-.11l.83-.09.09,0c.29,0,.61-.08.93-.14h.1l1-.2h.06a24.17,24.17,0,0,0,2.9-.82A11.7,11.7,0,0,0,71,84.08a4.32,4.32,0,0,0,.73-2.39,4.94,4.94,0,0,0-9.86,0,4.35,4.35,0,0,0,.82,2.54,12,12,0,0,0-4.4,9.71,13.78,13.78,0,0,0,.82,4.71h0a30.78,30.78,0,0,0,4.22,1.08l.28,0c.57.1,1.14.18,1.7.24l.49,0c.49,0,1,.08,1.45.09h.56c.44,0,.88,0,1.31,0a5.44,5.44,0,0,0,.57,0c.42,0,.84-.07,1.24-.12l.52-.07c.43-.07.85-.15,1.25-.24l.4-.09c.45-.11.89-.25,1.32-.4l.2-.08a12.82,12.82,0,0,0,.68-2.28A11.15,11.15,0,0,1,68.83,97.19Z" transform="translate(-1.89 18.59)"/><path class="cls-4" d="M74.56,99.12v0l-.2.08Z" transform="translate(-1.89 18.59)"/><path class="cls-4" d="M76.89,73.11a6,6,0,0,0,3.24,10.56h0c-.16-.83-.34-1.67-.55-2.51l-.06-.26c-.21-.86-.45-1.72-.71-2.58h0c-.26-.87-.55-1.73-.85-2.58l0-.12c-.28-.78-.58-1.55-.88-2.3a1.6,1.6,0,0,1-.1-.23Z" transform="translate(-1.89 18.59)"/><path class="cls-4" d="M77,73.31a1.57,1.57,0,0,1-.09-.23h0A1.6,1.6,0,0,0,77,73.31Z" transform="translate(-1.89 18.59)"/><path class="cls-4" d="M85.18,83.53a8,8,0,0,1,2.46-3,2.3,2.3,0,0,1,.11.57,2,2,0,0,0-1-1.67c-1-.55-2.54-.09-3.37,5.62a8.86,8.86,0,0,1-2.63,5.14,13.73,13.73,0,0,1-.66,4.09c0,.14-.13.26-.18.4a16.79,16.79,0,0,0,5.05-5.79C84.11,87.76,84.15,85.65,85.18,83.53Z" transform="translate(-1.89 18.59)"/><path class="cls-4" d="M87.34,83a28.4,28.4,0,0,1-2.41,5.83A28.4,28.4,0,0,0,87.34,83Z" transform="translate(-1.89 18.59)"/><path class="cls-4" d="M80.72,90.14a11.68,11.68,0,0,1-2.06,1.59,1.1,1.1,0,0,1,.4.56c.47,1.74-1.22,2.18-3.55,2.48a13.51,13.51,0,0,1-.26,2,20.49,20.49,0,0,0,3.61-1.57c.35-.19.69-.4,1-.62.05-.14.13-.26.18-.4A13.73,13.73,0,0,0,80.72,90.14Z" transform="translate(-1.89 18.59)"/><path class="cls-4" d="M69.55,94.49c-.71.07-1.24.1-1.53.11a1.89,1.89,0,0,1,1.17,1.62,1.61,1.61,0,0,1-.36,1,11.15,11.15,0,0,0,6.42-.37,13.51,13.51,0,0,0,.26-2c-1.14.15-2.44.27-3.73.48C69.75,95.59,69.41,95.07,69.55,94.49Z" transform="translate(-1.89 18.59)"/><path class="cls-4" d="M77.46,92.39a18.24,18.24,0,0,1-1.95.81h0A16.46,16.46,0,0,0,77.46,92.39Z" transform="translate(-1.89 18.59)"/><path class="cls-4" d="M75.51,93.2a24.17,24.17,0,0,1-2.9.82,24.06,24.06,0,0,0,2.9-.81Z" transform="translate(-1.89 18.59)"/><path class="cls-4" d="M77.46,92.39a16.46,16.46,0,0,1-1.95.82c0,.24,0,.48,0,.73s0,.56,0,.83c2.33-.3,4-.74,3.55-2.48a1.1,1.1,0,0,0-.4-.56,11.47,11.47,0,0,1-1.19.65Z" transform="translate(-1.89 18.59)"/><path class="cls-4" d="M75.51,93.21a24.06,24.06,0,0,1-2.9.81h-.06l-1,.2h-.1c-.32.06-.64.11-.93.14l-.09,0-.83.09c-.14.58.2,1.1,2.23.76,1.29-.21,2.59-.33,3.73-.48,0-.27,0-.54,0-.83S75.53,93.45,75.51,93.21Z" transform="translate(-1.89 18.59)"/><path class="cls-4" d="M68,94.6H67.8a1.06,1.06,0,0,0-.28.06,1.06,1.06,0,0,1,.28-.06Z" transform="translate(-1.89 18.59)"/><path class="cls-4" d="M68,94.6H67.8a1.06,1.06,0,0,0-.28.06.51.51,0,0,0-.21.09.54.54,0,0,0-.24.26.86.86,0,0,0,0,.53l.06.19a2.47,2.47,0,0,0,1.71,1.45h0a1.61,1.61,0,0,0,.36-1A1.89,1.89,0,0,0,68,94.6Z" transform="translate(-1.89 18.59)"/><path class="cls-4" d="M68.83,97.19Z" transform="translate(-1.89 18.59)"/><path class="cls-4" d="M87.64,80.48a8,8,0,0,0-2.46,3c-1,2.12-1.07,4.23-.25,5.31h0A28.4,28.4,0,0,0,87.34,83h0l.2-.7v0c.06-.22.11-.43.15-.62a1.94,1.94,0,0,0,0-.59A2.3,2.3,0,0,0,87.64,80.48Z" transform="translate(-1.89 18.59)"/><path class="cls-4" d="M62.59,45.35h0l1-.22.5-.09.64-.1-.59-.64c-9.24-9.51-10.55,3-10.74,6.75a16.32,16.32,0,0,1,1.68-1.75C55.25,46.7,56.36,40,62.59,45.35Z" transform="translate(-1.89 18.59)"/><path class="cls-4" d="M59.42,46.46h0c.53-.25,1.08-.46,1.64-.66l.63-.2c.3-.09.59-.18.9-.25-6.23-5.4-7.34,1.35-7.54,3.94A17.27,17.27,0,0,1,59.42,46.46Z" transform="translate(-1.89 18.59)"/><path class="cls-4" d="M72.18,45.35c2.21-2.2,6.4-5.22,7.88,1.79a8.14,8.14,0,0,1,.2,2.68l.07.08a15.88,15.88,0,0,1,1.4,1.57,12.53,12.53,0,0,0-.11-4.09C80,37.32,74.28,41.42,70.79,45l.3.06C71.46,45.17,71.82,45.26,72.18,45.35Z" transform="translate(-1.89 18.59)"/><path class="cls-4" d="M72.6,45.45c.47.13.94.29,1.39.45l.52.21c.28.11.57.23.84.36l.58.28c.25.12.5.26.74.39l.56.32c.36.22.71.46,1,.7s.42.32.63.48l.45.37c.22.18.43.37.63.56l.27.25a8.14,8.14,0,0,0-.2-2.68c-1.48-7-5.67-4-7.88-1.79l.11,0Z" transform="translate(-1.89 18.59)"/><path class="cls-4" d="M82.44,52.48c.17.27.34.54.49.82C82.78,53,82.61,52.75,82.44,52.48Z" transform="translate(-1.89 18.59)"/><path class="cls-4" d="M57.05,71.58l.09-.24c.22-.61.42-1.15.61-1.63,0-.12.09-.25.14-.36s.08-.2.11-.3l.12-.29.1-.24.1-.24.08-.21.05-.13a1.59,1.59,0,0,0,.09-.2h0a1.6,1.6,0,0,1,.09-.2s12.06-6.47,16.24,1.2a43.49,43.49,0,0,1,2,4.33h0a15.08,15.08,0,0,0,7.83-12.9,13.9,13.9,0,0,0-1.68-6.59c.15.29.3.58.44.88A19.33,19.33,0,0,1,68.8,55a15.41,15.41,0,0,1-3.49,4.61,4.34,4.34,0,0,1,.43,1.86,4.81,4.81,0,0,1-5,4.62,5.07,5.07,0,0,1-4.2-2.16,19.59,19.59,0,0,1-3.7.36,18.84,18.84,0,0,1-2.28-.15,15.37,15.37,0,0,0,6.19,8.29l.06-.19ZM70,60.82a4.94,4.94,0,0,1,5.61-4,4.69,4.69,0,0,1,4.27,5.19,4.92,4.92,0,0,1-5.6,4A4.71,4.71,0,0,1,70,60.82Z" transform="translate(-1.89 18.59)"/><path class="cls-4" d="M70.79,45l-.21,0,.2,0Z" transform="translate(-1.89 18.59)"/><path class="cls-4" d="M50.57,64.11a13.09,13.09,0,0,1-.36-1.53A13.09,13.09,0,0,0,50.57,64.11Z" transform="translate(-1.89 18.59)"/><path class="cls-4" d="M82.28,52.25c-.18-.26-.35-.53-.55-.78h0C81.92,51.73,82.1,52,82.28,52.25Z" transform="translate(-1.89 18.59)"/><path class="cls-4" d="M69,44.81l.49,0Z" transform="translate(-1.89 18.59)"/><path class="cls-4" d="M50.12,62.06c0-.19,0-.38-.07-.57C50.07,61.68,50.09,61.87,50.12,62.06Z" transform="translate(-1.89 18.59)"/><path class="cls-4" d="M74.87,68.74c-4.18-7.67-16.24-1.2-16.24-1.2a1.6,1.6,0,0,0-.09.2,5,5,0,0,1,3.57,2.38c.83,1.17-.27,3-1.36,4.34a19.19,19.19,0,0,0,6.62,1.17,18.93,18.93,0,0,0,9.52-2.52l0,0A43.49,43.49,0,0,0,74.87,68.74Z" transform="translate(-1.89 18.59)"/><path class="cls-4" d="M62.11,70.12a5,5,0,0,0-3.57-2.38l-.09.2-.05.13-.08.21-.1.24-.1.24-.12.29c0,.1-.07.19-.11.3s-.09.24-.14.36c-.19.48-.39,1-.61,1.63l-.09.24-.23.63-.06.19a17.71,17.71,0,0,0,4,2.06C61.84,73.11,62.94,71.29,62.11,70.12Z" transform="translate(-1.89 18.59)"/><path class="cls-4" d="M57.75,69.71c-.19.48-.39,1-.61,1.63C57.36,70.73,57.56,70.19,57.75,69.71Z" transform="translate(-1.89 18.59)"/><path class="cls-4" d="M58.45,67.94l.09-.2h0A1.59,1.59,0,0,1,58.45,67.94Z" transform="translate(-1.89 18.59)"/><path class="cls-4" d="M76.92,73.07l0,0,0,0Z" transform="translate(-1.89 18.59)"/><path class="cls-4" d="M76.92,73.07h0Z" transform="translate(-1.89 18.59)"/><path class="cls-4" d="M81.73,51.48h0a15.88,15.88,0,0,0-1.4-1.57A16,16,0,0,1,81.73,51.48Z" transform="translate(-1.89 18.59)"/><path class="cls-4" d="M71.09,45.1l-.3-.06h0Z" transform="translate(-1.89 18.59)"/><path class="cls-4" d="M72.29,45.38l.31.07Z" transform="translate(-1.89 18.59)"/><path class="cls-4" d="M78.28,48.16c.22.15.42.32.63.48C78.7,48.48,78.5,48.31,78.28,48.16Z" transform="translate(-1.89 18.59)"/><path class="cls-4" d="M74,45.9l.52.21Z" transform="translate(-1.89 18.59)"/><path class="cls-4" d="M79.36,49c.22.18.43.37.63.56C79.79,49.38,79.58,49.19,79.36,49Z" transform="translate(-1.89 18.59)"/><path class="cls-4" d="M76.67,47.14l.56.32Z" transform="translate(-1.89 18.59)"/><path class="cls-4" d="M75.35,46.47l.58.28Z" transform="translate(-1.89 18.59)"/><path class="cls-4" d="M50.21,62.58c0-.17-.07-.35-.09-.52A4.71,4.71,0,0,0,50.21,62.58Z" transform="translate(-1.89 18.59)"/><polygon class="cls-4" points="48.68 82.7 48.68 82.7 48.68 82.7 48.68 82.7"/><path class="cls-4" d="M50.05,61.49c0-.43-.07-.86-.07-1.31C50,60.63,50,61.06,50.05,61.49Z" transform="translate(-1.89 18.59)"/><path class="cls-4" d="M56.55,63.9a4.31,4.31,0,0,1-.78-2.46,4.81,4.81,0,0,1,5-4.62,5,5,0,0,1,4.56,2.76A15.41,15.41,0,0,0,68.8,55a17.76,17.76,0,0,1-5-2.84c-4.07.91-10.49-.08-10.49-.08s0-.39,0-1A14.28,14.28,0,0,0,50,60.18c0,.45,0,.88.07,1.31,0,.19,0,.38.07.57s.06.35.09.52a13.09,13.09,0,0,0,.36,1.53h0a18.84,18.84,0,0,0,2.28.15A19.59,19.59,0,0,0,56.55,63.9Z" transform="translate(-1.89 18.59)"/><path class="cls-4" d="M65.45,44.84l.35,0Z" transform="translate(-1.89 18.59)"/><path class="cls-4" d="M63.56,45.12l.5-.09Z" transform="translate(-1.89 18.59)"/><path class="cls-4" d="M62.6,45.34h0Z" transform="translate(-1.89 18.59)"/><path class="cls-4" d="M63.83,52.13A17.34,17.34,0,0,1,62,50.36a32,32,0,0,1-7-.14s0-.37,0-.93A16.32,16.32,0,0,0,53.37,51c0,.62,0,1,0,1S59.76,53,63.83,52.13Z" transform="translate(-1.89 18.59)"/><path class="cls-4" d="M62.59,45.35h0c-.31.07-.6.16-.9.25C62,45.51,62.29,45.42,62.59,45.35Z" transform="translate(-1.89 18.59)"/><path class="cls-4" d="M61.06,45.8c-.56.2-1.11.41-1.64.66C60,46.21,60.5,46,61.06,45.8Z" transform="translate(-1.89 18.59)"/><path class="cls-4" d="M55.05,49.29c0,.56,0,.93,0,.93a32,32,0,0,0,7,.14,14.91,14.91,0,0,1-2.55-3.9A17.27,17.27,0,0,0,55.05,49.29Z" transform="translate(-1.89 18.59)"/><path class="cls-4" d="M82.28,52.25l.16.23Z" transform="translate(-1.89 18.59)"/><path class="cls-4" d="M82.93,53.3l.16.29Z" transform="translate(-1.89 18.59)"/><path class="cls-4" d="M65.8,44.81c.52,0,1-.07,1.57-.07C66.84,44.74,66.32,44.77,65.8,44.81Z" transform="translate(-1.89 18.59)"/><path class="cls-4" d="M65.45,44.84c-.25,0-.5.06-.75.09h0C65,44.91,65.2,44.86,65.45,44.84Z" transform="translate(-1.89 18.59)"/><path class="cls-4" d="M69.65,44.89h0q.48,0,.93.12l-1.11-.15.18,0Z" transform="translate(-1.89 18.59)"/><path class="cls-4" d="M69,44.81c-.53,0-1.06-.07-1.61-.07.46,0,.92,0,1.36.06Z" transform="translate(-1.89 18.59)"/><path class="cls-4" d="M64.71,44.94h0l-.64.1C64.27,45,64.49,45,64.71,44.94Z" transform="translate(-1.89 18.59)"/><path class="cls-4" d="M62.6,45.34l1-.22Z" transform="translate(-1.89 18.59)"/><polygon class="cls-4" points="57.53 65.05 57.53 65.05 57.53 65.05 57.53 65.05"/><path class="cls-4" d="M61.69,45.6l-.63.2Z" transform="translate(-1.89 18.59)"/><path class="cls-4" d="M72.18,45.35c-.36-.09-.72-.18-1.09-.25.37.07.73.16,1.09.25Z" transform="translate(-1.89 18.59)"/><path class="cls-4" d="M80.33,49.9l-.07-.08h0Z" transform="translate(-1.89 18.59)"/><path class="cls-4" d="M74.51,46.11c.28.11.57.23.84.36C75.08,46.34,74.79,46.22,74.51,46.11Z" transform="translate(-1.89 18.59)"/><path class="cls-4" d="M80,49.57a3.19,3.19,0,0,1,.26.26h0Z" transform="translate(-1.89 18.59)"/><path class="cls-4" d="M72.29,45.38l-.11,0h0Z" transform="translate(-1.89 18.59)"/><path class="cls-4" d="M72.6,45.45c.47.13.94.29,1.39.45C73.54,45.74,73.07,45.58,72.6,45.45Z" transform="translate(-1.89 18.59)"/><path class="cls-4" d="M78.91,48.64l.45.37Z" transform="translate(-1.89 18.59)"/><path class="cls-4" d="M77.23,47.46c.36.22.71.46,1,.7C77.94,47.92,77.59,47.68,77.23,47.46Z" transform="translate(-1.89 18.59)"/><path class="cls-4" d="M75.93,46.75c.25.12.5.26.74.39C76.43,47,76.18,46.87,75.93,46.75Z" transform="translate(-1.89 18.59)"/><path class="cls-4" d="M69.93,46c.26-.3.55-.61.85-.92l-.2,0q-.45-.07-.93-.12C69.76,45.24,69.85,45.6,69.93,46Z" transform="translate(-1.89 18.59)"/><path class="cls-4" d="M70.18,50A14.21,14.21,0,0,1,68.8,55a19.33,19.33,0,0,0,14.73-.5c-.14-.3-.29-.59-.44-.88l-.16-.29c-.15-.28-.32-.55-.49-.82l-.16-.23c-.18-.26-.36-.52-.55-.77C80.75,57.06,73.78,52.71,70.18,50Z" transform="translate(-1.89 18.59)"/><path class="cls-4" d="M69.65,44.89l-.18,0-.49,0h-.25C69,44.82,69.35,44.85,69.65,44.89Z" transform="translate(-1.89 18.59)"/><path class="cls-4" d="M81.73,51.48a16,16,0,0,0-1.4-1.58l-.08-.07c-.7,4.76-9.46-2.92-9.46-2.92a17.45,17.45,0,0,1,1.39-1.56c-.36-.09-.72-.18-1.09-.25l-.31-.05c-.3.31-.59.62-.85.92a13.38,13.38,0,0,1,.31,2.85c0,.4,0,.8-.06,1.2C73.78,52.71,80.75,57.06,81.73,51.48Z" transform="translate(-1.89 18.59)"/><path class="cls-4" d="M79.36,49l-.45-.37c-.21-.16-.41-.33-.63-.48s-.69-.48-1-.7l-.56-.32c-.24-.13-.49-.27-.74-.39l-.58-.28c-.27-.13-.56-.25-.84-.36L74,45.9c-.45-.16-.92-.32-1.39-.45l-.31-.07-.11,0a17.45,17.45,0,0,0-1.39,1.56s8.76,7.68,9.46,2.92a3.19,3.19,0,0,0-.26-.26C79.79,49.38,79.58,49.19,79.36,49Z" transform="translate(-1.89 18.59)"/><polygon class="cls-4" points="67.77 63.48 67.77 63.48 67.77 63.48 67.77 63.48"/><path class="cls-4" d="M67.37,44.74c.46,0,.91,0,1.36.06C68.29,44.76,67.83,44.74,67.37,44.74Z" transform="translate(-1.89 18.59)"/><path class="cls-4" d="M63.83,52.13a17.76,17.76,0,0,0,5,2.84A14.21,14.21,0,0,0,70.18,50c-1.3-1-2.16-1.71-2.16-1.71s.75-1,1.91-2.34c-.08-.37-.17-.73-.28-1.08h0c-.3,0-.61-.07-.92-.09s-.9-.06-1.36-.06-1.05,0-1.57.07l-.35,0c-.25,0-.5.07-.74.1C68.81,49.49,67.07,51.41,63.83,52.13Z" transform="translate(-1.89 18.59)"/><path class="cls-4" d="M64.71,44.94c-.22,0-.44.05-.65.09l-.5.09-1,.22h0l.12.1c3.76,3.32,2,4.54-.74,4.91a17.34,17.34,0,0,0,1.86,1.77C67.07,51.41,68.81,49.49,64.71,44.94Z" transform="translate(-1.89 18.59)"/><path class="cls-4" d="M62.71,45.45l-.12-.1c-.3.07-.6.16-.9.25l-.63.2c-.56.2-1.11.41-1.64.66h0A14.91,14.91,0,0,0,62,50.36C64.73,50,66.47,48.77,62.71,45.45Z" transform="translate(-1.89 18.59)"/><path class="cls-4" d="M69.93,46C68.77,47.27,68,48.31,68,48.31s.86.75,2.16,1.71c0-.4.06-.8.06-1.2A13.38,13.38,0,0,0,69.93,46Z" transform="translate(-1.89 18.59)"/><path class="cls-4" d="M63.68,60.89a1.46,1.46,0,0,1,0,.2c.34,1.9-.68,3.63-2.27,3.87a3,3,0,0,1-2.91-1.57,16.74,16.74,0,0,1-2,.51,5.07,5.07,0,0,0,4.2,2.16,4.81,4.81,0,0,0,5-4.62,4.34,4.34,0,0,0-.43-1.86A17.3,17.3,0,0,1,63.68,60.89Z" transform="translate(-1.89 18.59)"/><path class="cls-4" d="M60.75,56.82a4.81,4.81,0,0,0-5,4.62,4.31,4.31,0,0,0,.78,2.46,16.74,16.74,0,0,0,2-.51A4.16,4.16,0,0,1,58,62c-.33-1.9.69-3.63,2.28-3.87a3.28,3.28,0,0,1,3.41,2.81,17.3,17.3,0,0,0,1.63-1.31A5,5,0,0,0,60.75,56.82Z" transform="translate(-1.89 18.59)"/><path class="cls-4" d="M61.46,65c1.59-.24,2.61-2,2.27-3.87a1.46,1.46,0,0,0,0-.2,17.86,17.86,0,0,1-5.13,2.5A3,3,0,0,0,61.46,65Z" transform="translate(-1.89 18.59)"/><path class="cls-4" d="M60.27,58.08c-1.59.24-2.61,2-2.28,3.87a4.16,4.16,0,0,0,.56,1.44,17.86,17.86,0,0,0,5.13-2.5A3.28,3.28,0,0,0,60.27,58.08Z" transform="translate(-1.89 18.59)"/><path class="cls-4" d="M74.31,66a4.92,4.92,0,0,0,5.6-4,4.69,4.69,0,0,0-4.27-5.19,4.94,4.94,0,0,0-5.61,4A4.71,4.71,0,0,0,74.31,66Zm.66-8a3.55,3.55,0,1,1-2.8,3.56A3.22,3.22,0,0,1,75,58.05Z" transform="translate(-1.89 18.59)"/><path class="cls-4" d="M75.17,65a3.55,3.55,0,1,0-3-3.41A3.22,3.22,0,0,0,75.17,65Z" transform="translate(-1.89 18.59)"/></g></g><g id="Layer_4" data-name="Layer 4"><path class="cls-5" d="M53.78,75.21l.24-.82Z" transform="translate(-1.89 18.59)"/><path class="cls-5" d="M62.69,100.35c-.53-.06-1.07-.15-1.61-.24C61.62,100.2,62.16,100.29,62.69,100.35Z" transform="translate(-1.89 18.59)"/><path class="cls-5" d="M54.11,74.11c.07-.25.15-.5.22-.74C54.26,73.61,54.18,73.86,54.11,74.11Z" transform="translate(-1.89 18.59)"/><path class="cls-5" d="M60.82,100.06a26.63,26.63,0,0,1-4-1.1A26.63,26.63,0,0,0,60.82,100.06Z" transform="translate(-1.89 18.59)"/><path class="cls-5" d="M55,71.22c.2-.62.4-1.17.57-1.66C55.44,70.05,55.24,70.6,55,71.22Z" transform="translate(-1.89 18.59)"/><path class="cls-5" d="M53.45,76.36c.09-.31.17-.62.26-.92C53.62,75.74,53.54,76.05,53.45,76.36Z" transform="translate(-1.89 18.59)"/><path class="cls-5" d="M74.64,75.68c.28.86.55,1.74.8,2.62C75.19,77.42,74.92,76.54,74.64,75.68Z" transform="translate(-1.89 18.59)"/><path class="cls-5" d="M75.44,78.31c.25.87.47,1.75.67,2.62C75.91,80.06,75.69,79.18,75.44,78.31Z" transform="translate(-1.89 18.59)"/><path class="cls-5" d="M76.17,81.2c.19.85.37,1.71.51,2.55C76.54,82.91,76.36,82.06,76.17,81.2Z" transform="translate(-1.89 18.59)"/><path class="cls-5" d="M54.43,73.07c.07-.24.15-.47.22-.69C54.58,72.6,54.5,72.83,54.43,73.07Z" transform="translate(-1.89 18.59)"/><path class="cls-5" d="M54.74,72.11c.07-.22.14-.44.21-.64C54.88,71.67,54.81,71.89,54.74,72.11Z" transform="translate(-1.89 18.59)"/><path class="cls-5" d="M52.3,81c.33-1.56.72-3.1,1.12-4.54C53,77.91,52.63,79.45,52.3,81Z" transform="translate(-1.89 18.59)"/><path class="cls-5" d="M60.22,84.32A4.65,4.65,0,1,1,68,84.16c2.42,1.79,4.1,5.24,4.3,9.26a15.48,15.48,0,0,0,1.83-.81h0c.37-.2.75-.42,1.11-.66h0a11.43,11.43,0,0,0,1.94-1.62,33.83,33.83,0,0,0-.56-6.57,5.92,5.92,0,0,1-5-6.07,6.34,6.34,0,0,1,2-4.71c.33.84.64,1.71.93,2.58a52.15,52.15,0,0,0-2.86-7c-3.95-7.79-15.3-1.22-15.3-1.22l-.16.41.08-.21A4.66,4.66,0,0,1,59.72,70c1.36,2.08-2.81,6.2-2.81,6.2S55.21,81,52.29,81c-1.54,7.3-1.91,15.2,2.93,17.29q.81.35,1.62.63a15.19,15.19,0,0,1-.76-4.77C56.08,90,57.75,86.27,60.22,84.32Z" transform="translate(-1.89 18.59)"/><path class="cls-5" d="M72.09,97.11a13.68,13.68,0,0,1-.65,2.34,14.09,14.09,0,0,1-1.43.46c3.11-.84,5.45-2.58,6.44-5-.31.22-.63.44-1,.63A19.14,19.14,0,0,1,72.09,97.11Z" transform="translate(-1.89 18.59)"/><path class="cls-5" d="M56,68.6c0-.09.06-.17.09-.24S56,68.51,56,68.6Z" transform="translate(-1.89 18.59)"/><path class="cls-5" d="M68,100.32q-.57.08-1.17.12Q67.41,100.4,68,100.32Z" transform="translate(-1.89 18.59)"/><path class="cls-5" d="M69.65,100c-.39.09-.78.18-1.18.25C68.87,100.18,69.26,100.09,69.65,100Z" transform="translate(-1.89 18.59)"/><path class="cls-5" d="M56.15,68.11c0-.08.05-.15.08-.21S56.18,68,56.15,68.11Z" transform="translate(-1.89 18.59)"/><path class="cls-5" d="M55.74,69.19c0-.1.08-.2.11-.29C55.82,69,55.78,69.09,55.74,69.19Z" transform="translate(-1.89 18.59)"/><path class="cls-5" d="M66.27,100.47q-.6,0-1.23,0Q65.67,100.5,66.27,100.47Z" transform="translate(-1.89 18.59)"/><path class="cls-5" d="M64.51,100.48c-.45,0-.9,0-1.36-.09C63.61,100.44,64.06,100.47,64.51,100.48Z" transform="translate(-1.89 18.59)"/><path d="M56.05,68.36c0-.09.07-.18.1-.25S56.09,68.27,56.05,68.36Z" transform="translate(-1.89 18.59)"/><path d="M55.85,68.9l.11-.3Z" transform="translate(-1.89 18.59)"/><path d="M55.61,69.56c0-.12.09-.25.13-.37C55.7,69.31,55.66,69.44,55.61,69.56Z" transform="translate(-1.89 18.59)"/><path d="M55,71.47l.09-.25Z" transform="translate(-1.89 18.59)"/><path d="M56.23,67.9l.05-.13Z" transform="translate(-1.89 18.59)"/><path d="M54,74.39l.09-.28Z" transform="translate(-1.89 18.59)"/><path d="M54.65,72.38l.09-.27Z" transform="translate(-1.89 18.59)"/><path d="M53.42,76.47l0-.11Z" transform="translate(-1.89 18.59)"/><path d="M53.71,75.44a1.55,1.55,0,0,1,.07-.23A2,2,0,0,0,53.71,75.44Z" transform="translate(-1.89 18.59)"/><path d="M54.33,73.37c0-.1.07-.2.1-.3C54.4,73.17,54.37,73.27,54.33,73.37Z" transform="translate(-1.89 18.59)"/><path d="M52.29,81h0v0Z" transform="translate(-1.89 18.59)"/><path d="M56.91,76.18s4.17-4.12,2.81-6.2a4.66,4.66,0,0,0-3.36-2.42l-.08.21-.05.13c0,.06,0,.13-.08.21s-.06.16-.1.25,0,.15-.09.24l-.11.3c0,.09-.07.19-.11.29s-.08.25-.13.37c-.17.49-.37,1-.57,1.66l-.09.25c-.07.2-.14.42-.21.64l-.09.27c-.07.22-.15.45-.22.69s-.06.2-.1.3-.15.49-.22.74l-.09.28-.24.82a1.55,1.55,0,0,0-.07.23c-.09.3-.17.61-.26.92l0,.11c-.4,1.44-.79,3-1.12,4.54v0C55.21,81,56.91,76.18,56.91,76.18Z" transform="translate(-1.89 18.59)"/><path d="M61.08,100.11l-.26,0Z" transform="translate(-1.89 18.59)"/><path d="M66.81,100.44a4.89,4.89,0,0,1-.54,0A4.89,4.89,0,0,0,66.81,100.44Z" transform="translate(-1.89 18.59)"/><path d="M70,99.91c-.11,0-.24.06-.36.09C69.77,100,69.9,100,70,99.91Z" transform="translate(-1.89 18.59)"/><path d="M68.47,100.25l-.49.07Z" transform="translate(-1.89 18.59)"/><path d="M63.15,100.39l-.46,0Z" transform="translate(-1.89 18.59)"/><path d="M65,100.5l-.53,0Z" transform="translate(-1.89 18.59)"/><polygon points="54.95 117.56 54.95 117.56 54.95 117.56 54.95 117.56"/><path d="M72.09,97.11a9.73,9.73,0,0,1-6.06.37A2.39,2.39,0,0,1,64.43,96l-.06-.19a.9.9,0,0,1,0-.54.56.56,0,0,1,.22-.27,1.18,1.18,0,0,1,.46-.15h.22c.26,0,.76,0,1.43-.11h0c.24,0,.51-.06.78-.1h.09c.28,0,.57-.08.88-.14l.09,0c.32-.06.65-.12,1-.2h0a20.68,20.68,0,0,0,2.74-.84c-.2-4-1.88-7.47-4.3-9.26a4.64,4.64,0,1,0-7.82.16c-2.47,2-4.14,5.63-4.14,9.87A15.19,15.19,0,0,0,56.84,99h0a26.63,26.63,0,0,0,4,1.1l.26,0c.54.09,1.08.18,1.61.24l.46,0c.46,0,.91.08,1.36.09l.53,0q.63,0,1.23,0a4.89,4.89,0,0,0,.54,0q.6,0,1.17-.12l.49-.07c.4-.07.79-.16,1.18-.25.12,0,.25,0,.36-.09a14.09,14.09,0,0,0,1.43-.46A13.68,13.68,0,0,0,72.09,97.11Z" transform="translate(-1.89 18.59)"/><polygon points="74.79 102.34 74.79 102.34 74.79 102.34 74.79 102.34"/><path d="M74.6,75.55s0,.09,0,.13S74.61,75.6,74.6,75.55Z" transform="translate(-1.89 18.59)"/><path d="M76.11,80.93l.06.27Z" transform="translate(-1.89 18.59)"/><path d="M75.44,78.3h0Z" transform="translate(-1.89 18.59)"/><path d="M71.64,77.68a5.92,5.92,0,0,0,5,6.07h0c-.14-.84-.32-1.7-.51-2.55l-.06-.27c-.2-.87-.42-1.75-.67-2.62h0c-.25-.88-.52-1.76-.8-2.62,0,0,0-.08,0-.13-.29-.87-.6-1.74-.93-2.58A6.34,6.34,0,0,0,71.64,77.68Z" transform="translate(-1.89 18.59)"/><path d="M83.66,82.36c-.06.22-.12.46-.19.71C83.54,82.82,83.6,82.58,83.66,82.36Z" transform="translate(-1.89 18.59)"/><path d="M83.82,81.69q-.07.28-.15.63Q83.75,82,83.82,81.69Z" transform="translate(-1.89 18.59)"/><path d="M81.44,83.6a8,8,0,0,1,2.31-3.09,2.21,2.21,0,0,1,.11.57,2,2,0,0,0-1-1.69c-1-.56-2.39-.1-3.18,5.7a9.21,9.21,0,0,1-2.47,5.23,15,15,0,0,1-.62,4.16c-.05.14-.12.26-.17.4A16.72,16.72,0,0,0,81.2,89C80.43,87.91,80.47,85.76,81.44,83.6Z" transform="translate(-1.89 18.59)"/><path d="M83.47,83.08A30,30,0,0,1,81.2,89,30,30,0,0,0,83.47,83.08Z" transform="translate(-1.89 18.59)"/><path d="M74.17,92.61h0Z" transform="translate(-1.89 18.59)"/><path d="M77.24,90.32a11.43,11.43,0,0,1-1.94,1.62,1.05,1.05,0,0,1,.38.57c.44,1.76-1.15,2.21-3.34,2.52a15.56,15.56,0,0,1-.25,2.08,19.14,19.14,0,0,0,3.4-1.6c.33-.19.65-.41,1-.63,0-.14.12-.26.17-.4A15,15,0,0,0,77.24,90.32Z" transform="translate(-1.89 18.59)"/><path d="M66.72,94.74c-.67.07-1.17.1-1.43.11a1.93,1.93,0,0,1,1.1,1.65,1.66,1.66,0,0,1-.34,1h0a9.73,9.73,0,0,0,6.06-.37A15.56,15.56,0,0,0,72.34,95c-1.08.15-2.31.26-3.51.48C66.91,95.86,66.59,95.33,66.72,94.74Z" transform="translate(-1.89 18.59)"/><path d="M69.55,94.27h0Z" transform="translate(-1.89 18.59)"/><path d="M68.47,94.49l.09,0Z" transform="translate(-1.89 18.59)"/><path d="M67.5,94.64h0Z" transform="translate(-1.89 18.59)"/><path class="cls-5" d="M74.19,92.6c.37-.2.75-.42,1.11-.66h0C74.94,92.18,74.56,92.4,74.19,92.6Z" transform="translate(-1.89 18.59)"/><path class="cls-5" d="M74.17,92.61a15.48,15.48,0,0,1-1.83.81v0A17.5,17.5,0,0,0,74.17,92.61Z" transform="translate(-1.89 18.59)"/><path class="cls-5" d="M68.56,94.47c.32,0,.65-.12,1-.2C69.21,94.35,68.88,94.41,68.56,94.47Z" transform="translate(-1.89 18.59)"/><path class="cls-5" d="M66.72,94.74h0c.24,0,.51-.06.78-.1C67.23,94.68,67,94.72,66.72,94.74Z" transform="translate(-1.89 18.59)"/><path class="cls-5" d="M67.59,94.63c.28,0,.57-.08.88-.14C68.16,94.55,67.87,94.59,67.59,94.63Z" transform="translate(-1.89 18.59)"/><path class="cls-5" d="M72.34,93.42a20.68,20.68,0,0,1-2.74.84,22.06,22.06,0,0,0,2.74-.82Z" transform="translate(-1.89 18.59)"/><path class="cls-5" d="M74.17,92.61a17.5,17.5,0,0,1-1.83.83c0,.25,0,.49,0,.75s0,.56,0,.84c2.19-.31,3.78-.76,3.34-2.52a1.05,1.05,0,0,0-.38-.57c-.36.24-.74.46-1.11.66Z" transform="translate(-1.89 18.59)"/><path class="cls-5" d="M72.34,93.44a22.06,22.06,0,0,1-2.74.82h0c-.34.08-.67.15-1,.2l-.09,0c-.31.06-.6.1-.88.14H67.5c-.27,0-.54.08-.78.1-.13.59.19,1.12,2.11.77,1.2-.22,2.43-.33,3.51-.48,0-.28,0-.56,0-.84S72.35,93.69,72.34,93.44Z" transform="translate(-1.89 18.59)"/><path class="cls-5" d="M64.61,95a.56.56,0,0,0-.22.27A.56.56,0,0,1,64.61,95Z" transform="translate(-1.89 18.59)"/><path class="cls-5" d="M65.29,94.85h-.22a1.18,1.18,0,0,0-.46.15,1.18,1.18,0,0,1,.46-.15Z" transform="translate(-1.89 18.59)"/><path class="cls-5" d="M64.39,95.27a.9.9,0,0,0,0,.54A.9.9,0,0,1,64.39,95.27Z" transform="translate(-1.89 18.59)"/><path class="cls-5" d="M66.39,96.5a1.93,1.93,0,0,0-1.1-1.65h-.22a1.18,1.18,0,0,0-.46.15.56.56,0,0,0-.22.27.9.9,0,0,0,0,.54l.06.19A2.39,2.39,0,0,0,66,97.48h0A1.66,1.66,0,0,0,66.39,96.5Z" transform="translate(-1.89 18.59)"/><path class="cls-5" d="M83.67,82.32v0Z" transform="translate(-1.89 18.59)"/><path class="cls-5" d="M83.82,81.69a2.47,2.47,0,0,0,0-.61A2.47,2.47,0,0,1,83.82,81.69Z" transform="translate(-1.89 18.59)"/><polygon class="cls-5" points="79.31 107.59 79.31 107.59 79.31 107.59 79.31 107.59"/><path class="cls-5" d="M83.47,83.07h0Z" transform="translate(-1.89 18.59)"/><path class="cls-5" d="M83.75,80.51a8,8,0,0,0-2.31,3.09c-1,2.16-1,4.31-.24,5.4h0a30,30,0,0,0,2.27-5.92h0c.07-.25.13-.49.19-.71v0q.08-.34.15-.63a2.47,2.47,0,0,0,0-.61A2.21,2.21,0,0,0,83.75,80.51Z" transform="translate(-1.89 18.59)"/><g id="Layer_12" data-name="Layer 12"><path d="M51.46,51.62s0-19.15,10.14-7.88S51.46,51.62,51.46,51.62Z" transform="translate(-1.89 18.59)"/></g><g id="Layer_11" data-name="Layer 11"><path class="cls-6" d="M53,49.76S53,38,60.29,44.92,53,49.76,53,49.76Z" transform="translate(-1.89 18.59)"/></g><g id="Layer_19" data-name="Layer 19"><path d="M65.28,47.83s10.61-15.94,12.81-.95S65.28,47.83,65.28,47.83Z" transform="translate(-1.89 18.59)"/></g><g id="Layer_18" data-name="Layer 18"><path class="cls-6" d="M67.89,46.4s6.8-9.61,8.73.24S67.89,46.4,67.89,46.4Z" transform="translate(-1.89 18.59)"/></g><g id="Layer_16" data-name="Layer 16"><ellipse class="cls-5" cx="62.79" cy="78.48" rx="16.38" ry="15.69"/></g><g id="Layer_15" data-name="Layer 15"><path class="cls-4" d="M48.29,59.89a15.08,15.08,0,0,0,.56,4A16.87,16.87,0,0,0,51,64c9,0,16.38-7,16.38-15.69a15.09,15.09,0,0,0-.56-4,18.91,18.91,0,0,0-2.14-.15C55.63,44.19,48.29,51.22,48.29,59.89Z" transform="translate(-1.89 18.59)"/></g><g id="Layer_14" data-name="Layer 14"><path class="cls-4" d="M57.18,45.94a16.39,16.39,0,0,0,15.21,9.89,16.89,16.89,0,0,0,7.5-1.75,16.39,16.39,0,0,0-15.21-9.89A16.89,16.89,0,0,0,57.18,45.94Z" transform="translate(-1.89 18.59)"/></g><g id="Layer_9" data-name="Layer 9"><circle class="cls-7" cx="56.55" cy="79.75" r="4.69"/></g><g id="Layer_8" data-name="Layer 8"><ellipse class="cls-8" cx="58.55" cy="61.25" rx="2.74" ry="3.54" transform="translate(-10.91 28.71) rotate(-9.18)"/></g><g id="Layer_6" data-name="Layer 6"><circle class="cls-7" cx="69.94" cy="79.75" r="4.69"/></g><g id="Layer_5" data-name="Layer 5"><ellipse class="cls-8" cx="71.92" cy="61.26" rx="2.74" ry="3.54" transform="translate(-3.49 20.53) rotate(-1.52)"/></g></g></svg>