<?xml version="1.0" encoding="UTF-8"?>
<svg width="42px" height="42px" viewBox="0 0 42 42" version="1.1" xmlns="http://www.w3.org/2000/svg" xmlns:xlink="http://www.w3.org/1999/xlink">
    <!-- Generator: Sketch 63.1 (92452) - https://sketch.com -->
    <title>Password_icon</title>
    <desc>Created with Sketch.</desc>
    <g id="Password_icon" stroke="none" stroke-width="1" fill="none" fill-rule="evenodd">
        <g id="Group" transform="translate(12.000000, 1.000000)" fill="#D8D8D8">
            <path d="M9.5,0 C11.6011899,0 13.543054,0.68215454 15.116211,1.83708219 L18.3049851,0.571350134 L17.6121244,4.55334363 C18.4926018,5.9941739 19,7.68783235 19,9.5 C19,14.7467051 14.7467051,19 9.5,19 C4.25329488,19 0,14.7467051 0,9.5 C0,8.09942295 0.30308622,6.76963548 0.847248441,5.57264781 L3.68594044e-14,3.64153152e-14 L4.0577756,1.71233361 C5.59912735,0.633194182 7.47561846,0 9.5,0 Z M9.5,2.53333333 C5.65241624,2.53333333 2.53333333,5.65241624 2.53333333,9.5 C2.53333333,13.3475838 5.65241624,16.4666667 9.5,16.4666667 C13.3475838,16.4666667 16.4666667,13.3475838 16.4666667,9.5 C16.4666667,5.65241624 13.3475838,2.53333333 9.5,2.53333333 Z" id="Combined-Shape"></path>
            <rect id="Rectangle" x="8" y="17" width="4" height="23" rx="1.5"></rect>
            <path d="M12.5,32 L13.5,32 C14.3284271,32 15,32.6715729 15,33.5 L15,36.5 C15,37.3284271 14.3284271,38 13.5,38 L12.5,38 C11.6715729,38 11,37.3284271 11,36.5 L11,33.5 C11,32.6715729 11.6715729,32 12.5,32 Z" id="Rectangle-Copy" transform="translate(13.000000, 35.000000) rotate(-90.000000) translate(-13.000000, -35.000000) "></path>
        </g>
    </g>
</svg>