<?xml version="1.0" encoding="UTF-8"?>
<svg width="42px" height="42px" viewBox="0 0 42 42" version="1.1" xmlns="http://www.w3.org/2000/svg" xmlns:xlink="http://www.w3.org/1999/xlink">
    <!-- Generator: Sketch 63.1 (92452) - https://sketch.com -->
    <title>user_icon</title>
    <desc>Created with Sketch.</desc>
    <g id="user_icon" stroke="none" stroke-width="1" fill="none" fill-rule="evenodd">
        <path d="M21.5,8 C23.1587285,8 24.6916896,8.5384745 25.9336136,9.45015395 L28.4513041,8.4510659 L27.9044942,11.5950486 C28.5994938,12.7324805 29,14.0694686 29,15.5 C29,19.6421356 25.6421356,23 21.5,23 C17.3578644,23 14,19.6421356 14,15.5 C14,14.3937905 14.239491,13.3435172 14.6694525,12.3982006 L14,8 L17.2042442,9.35132626 C18.420962,8.49968828 19.9021268,8 21.5,8 Z" id="Combined-Shape" fill="#D8D8D8"></path>
        <circle id="Oval-Copy" fill="#D8D8D8" cx="21.5" cy="40.5" r="15.5"></circle>
        <path d="M35,39 C40.3333333,39 41.6666667,37 39,33 C35,27 34,26 36,22" id="Path" stroke="#D8D8D8" stroke-linecap="round" stroke-linejoin="round"></path>
    </g>
</svg>